<svg height="512" viewBox="0 0 64 64" width="512" xmlns="http://www.w3.org/2000/svg"><g id="airplane-delivery-logistic-shipping-transporation"><path d="m56.01 52.44-3.57 3.57a1.99 1.99 0 0 1 -2.7.12l-1.67-1.43-4.77-4.06-17.37-14.81-13.37-13.37-.07-.07-.64-.64a16.192 16.192 0 0 1 -2.53-3.29l-5.24-9.05a3.876 3.876 0 0 1 5.35-5.26l9.86 5.92a15.935 15.935 0 0 1 3.08 2.4l.02.02.08.08 11.94 11.94 1.42 1.42 14.81 17.37 4.06 4.77 1.43 1.67a1.99 1.99 0 0 1 -.12 2.7z" fill="#ff9811"/><path d="m56.01 52.44a1.99 1.99 0 0 0 .12-2.7l-1.43-1.67-4.06-4.77-14.81-17.37-1.42-1.42-11.94-11.94-.08-.08-.02-.02a15.935 15.935 0 0 0 -3.08-2.4l-9.86-5.92a3.856 3.856 0 0 0 -1.99-.55 3.9 3.9 0 0 0 -2.723 1.117l49.508 49.508z" fill="#ee8700"/><path d="m41.74 57.37a1.987 1.987 0 0 0 .53 1.87l.63.63 5.17-5.17-4.77-4.06z" fill="#ed1c24"/><path d="m16.029 54.213 2.829-2.828-2.425-2.425-2.02 3.637z" fill="#6d6e71"/><path d="m22.47 12.57 11.938 11.938c-.6-.68-10.992-10.999-11.938-11.938z" fill="#9bc9ff"/><path d="m24.509 34.409-11.948-11.948c.887.893 11.271 11.351 11.948 11.948z" fill="#9bc9ff"/><path d="m51.385 18.858 2.828-2.829-1.616-1.616-3.637 2.02z" fill="#6d6e71"/><path d="m59.87 42.9-.63-.63a1.987 1.987 0 0 0 -1.87-.53l-6.73 1.56 4.06 4.77z" fill="#d80027"/><path d="m43.508 19.466 2.22 2.22-2.829 2.829-3.033-3.034z" fill="#6d6e71"/><path d="m21.686 45.728-2.22-2.22 2.015-3.642 3.034 3.033" fill="#6d6e71"/><path d="m12.561 22.461-.067-.067-4.011 33.424a4 4 0 0 0 1.143 3.305l.747.747 4.04-7.273 2.02-3.637 5.051-9.091 3.031-5.455-.006-.005c-.677-.597-11.061-11.055-11.948-11.948z" fill="#ed1c24"/><path d="m12.494 22.393.067.067z" fill="#9bc9ff"/><path d="m24.509 34.409.006.005z" fill="#9bc9ff"/><path d="m34.408 24.508.007.007 5.454-3.031 9.091-5.051 3.637-2.02 7.273-4.04-.747-.747a4 4 0 0 0 -3.3-1.143l-33.429 4.011.076.076c.946.939 11.338 11.258 11.938 11.938z" fill="#d80027"/><path d="m22.47 12.57-.076-.076z" fill="#9bc9ff"/><path d="m34.414 24.515h.001l-.007-.007z" fill="#9bc9ff"/><path d="m55.33 53.11-2.638-3.043a1.86 1.86 0 0 0 -2.721-.1 1.86 1.86 0 0 0 .1 2.721l3.043 2.638 6.054 5.246 1.414-1.414-5.246-6.054z" fill="#ed1c24"/><path d="m10 10a1.726 1.726 0 0 0 -.216 2.177l3.216 4.823 4-4-4.823-3.216a1.726 1.726 0 0 0 -2.177.216z" fill="#58595b"/><g fill="#ff6243"><path d="m46.293 25.293a1 1 0 0 0 0 1.414l6 6a1 1 0 0 0 1.414-1.414l-6-6a1 1 0 0 0 -1.414 0z"/><path d="m55.293 34.293a1 1 0 0 0 0 1.414l1 1a1 1 0 0 0 1.414-1.414l-1-1a1 1 0 0 0 -1.414 0z"/><path d="m26.707 46.293a1 1 0 0 0 -1.414 1.414l6 6a1 1 0 0 0 1.414-1.414z"/><path d="m35.707 55.293a1 1 0 0 0 -1.414 1.414l1 1a1 1 0 0 0 1.414-1.414z"/><path d="m58.707 23.707a1 1 0 0 0 0-1.414l-3-3a1 1 0 0 0 -1.414 1.414l3 3a1 1 0 0 0 1.414 0z"/><path d="m61.707 25.293-1-1a1 1 0 0 0 -1.414 1.414l1 1a1 1 0 0 0 1.414-1.414z"/><path d="m23.707 57.293-3-3a1 1 0 0 0 -1.414 1.414l3 3a1 1 0 0 0 1.414-1.414z"/><path d="m25.707 59.293a1 1 0 0 0 -1.414 1.414l1 1a1 1 0 0 0 1.414-1.414z"/></g></g></svg>