<?xml version="1.0" encoding="utf-8"?>
<!-- Generator: Adobe Illustrator 24.3.0, SVG Export Plug-In . SVG Version: 6.00 Build 0)  -->
<svg version="1.1" id="Ñëîé_1" xmlns="http://www.w3.org/2000/svg" xmlns:xlink="http://www.w3.org/1999/xlink" x="0px" y="0px"
	 viewBox="0 0 512 512" style="enable-background:new 0 0 512 512;" xml:space="preserve">
<style type="text/css">
	.st0{fill:#010101;}
	.st1{fill:#F6EB16;}
</style>
<g id="XMLID_1_">
	<path class="st0" d="M119.66,79.56L12.14,163.67L0,291.23l89.23,104.45l393.07,36.86L512,117.01L119.66,79.56z M38.62,243.98
		c-6-0.59-10.53-6-9.95-12c0.59-6,6-10.53,12-9.95s10.53,6,9.95,12C50.03,240.03,44.62,244.57,38.62,243.98z"/>
	<path class="st1" d="M122.15,86.72L18.43,166.89l-12,121.71l86.02,99.91l384,36.72l28.38-301.79L122.15,86.72z M57.05,234.62
		c-0.88,9.65-9.36,16.53-19.02,15.65c-9.65-0.88-16.53-9.36-15.65-19.02c0.88-9.51,9.36-16.53,19.02-15.65
		C50.91,216.48,57.93,225.11,57.05,234.62z"/>
	<polygon id="XMLID_16_" class="st0" points="195.58,152.7 282.48,160.89 279.99,186.93 240.79,183.27 240.05,191.61 275.75,194.98 
		273.41,218.82 237.86,215.46 236.98,224.96 277.07,228.77 274.58,253.49 187.1,245.15 	"/>
	<path id="XMLID_15_" class="st0" d="M295.35,222.92l-16.38,24.28c0,0,20.63,11.12,49.3,13.6c28.53,2.49,49.59-5.71,56.32-19.31
		c6.73-13.6-1.32-29.26-14.63-33.5s-36.28-8.92-33.94-13.46c2.34-4.53,16.82-3.66,25.6,0c8.78,3.66,11.12,5.85,11.12,5.85
		l15.07-21.5c0,0-16.09-11.7-46.08-13.46c-29.99-1.76-52.08,13.31-53.54,27.21c-1.61,13.9,7.46,22.24,21.07,27.21
		c0,0,11.56,3.66,20.33,5.56s14.19,7.61,3.8,9.65C323.15,237.11,301.64,229.35,295.35,222.92z"/>
	<polygon id="XMLID_14_" class="st0" points="414.72,204.19 389.12,201.7 392.05,171.72 490.5,181.08 487.72,211.21 462.12,208.73 
		456.12,271.34 409.45,266.8 	"/>
	<path id="XMLID_13_" class="st0" d="M202.75,258.32l45.2,4.1l-4.83,52.52c0,0-4.39,12.58,10.53,14.04
		c15.07,1.46,14.34-12.14,14.34-12.14l4.97-51.79l45.35,4.39l-5.85,61c0,0-5.41,33.35-60.85,28.09
		c-55.44-5.27-54.71-40.37-54.71-40.37L202.75,258.32z"/>
	<polygon id="XMLID_12_" class="st0" points="370.54,274.41 383.41,299.86 400.24,277.19 452.9,282.31 403.75,330.88 399.95,370.66 
		353.72,366.28 357.38,327.22 318.03,269.58 	"/>
	<path class="st0" d="M173.64,301.18c0,0,19.02-3.8,18.58-23.11c-0.44-19.46-39.35-24.28-39.35-24.28l-64.07-6.29l-8.78,92.75
		c0,0,51.2,5.41,66.12,6.58c14.92,1.17,44.91-0.15,47.84-19.31C196.9,308.35,173.64,301.18,173.64,301.18z M129.9,274.56
		c0,0,19.75-1.76,18.58,7.46c-1.17,9.22-19.75,5.12-19.75,5.12L129.9,274.56z M125.81,321.95l1.02-15.07c0,0,24.58-0.88,23.84,9.65
		C149.8,327.07,125.81,321.95,125.81,321.95z"/>
	<path class="st0" d="M164.28,194.83c0,0,19.02-3.8,18.58-23.11c-0.44-19.46-39.35-24.28-39.35-24.28l-64.07-6.29l-8.78,92.75
		c0,0,51.2,5.41,65.97,6.58c14.92,1.17,44.91,0,47.84-19.31C187.54,202,164.28,194.83,164.28,194.83z M120.98,168.5
		c0,0,19.75-1.76,18.58,7.46s-19.75,4.97-19.75,4.97L120.98,168.5z M116.88,215.89l1.02-15.07c0,0,24.58-0.88,23.84,9.65
		C140.87,221.01,116.88,215.89,116.88,215.89z"/>
	<path class="st0" d="M453.19,291.38c0.44-4.1,4.1-7.17,8.19-6.73c4.1,0.44,7.17,4.1,6.73,8.19c-0.44,4.1-4.1,7.17-8.19,6.73
		C455.83,299.13,452.9,295.47,453.19,291.38z M466.36,292.55c0.29-3.51-1.9-6.29-4.97-6.58c-3.07-0.29-5.85,2.05-6.14,5.41
		c-0.29,3.51,1.9,6.29,5.12,6.58C463.14,298.4,465.92,296.06,466.36,292.55z M458.17,287.57l3.07,0.29
		c2.05,0.15,3.07,1.02,2.93,2.78c-0.15,1.46-1.02,2.05-2.49,2.05l1.9,3.95l-1.61-0.15l-1.76-3.8l-0.88-0.15l-0.29,3.66l-1.61-0.15
		L458.17,287.57z M459.48,291.23l1.32,0.15c0.88,0.15,1.76,0,1.9-1.17c0.15-1.02-0.73-1.17-1.61-1.32l-1.46-0.15L459.48,291.23z"/>
</g>
</svg>
