<svg height="512" viewBox="0 0 512 512" width="512" xmlns="http://www.w3.org/2000/svg"><g id="Layer_7" data-name="Layer 7"><path d="m432 192h-352l-64 96h480z" fill="#283238"/><path d="m392 64h-272a40 40 0 0 0 -40 40v88h352v-88a40 40 0 0 0 -40-40z" fill="#e78438"/><path d="m392 64h-256a40 40 0 0 0 -40 40v88h336v-88a40 40 0 0 0 -40-40z" fill="#eeab46"/><path d="m432 192h-336l-64 96h464z" fill="#3a474e"/><path d="m48 416h416a32 32 0 0 0 32-32v-96h-480v96a32 32 0 0 0 32 32z" fill="#e78438"/><path d="m40 414.869v33.131h64v-32h-56a31.727 31.727 0 0 1 -8-1.131z" fill="#3a474e"/><path d="m496 384v-96h-464v96a32 32 0 0 0 32 32h400a32 32 0 0 0 32-32z" fill="#eeab46"/><path d="m464 416h-56v32h64v-33.131a31.727 31.727 0 0 1 -8 1.131z" fill="#3a474e"/><rect fill="#283238" height="64" rx="32" width="416" x="48" y="320"/><path d="m464 352a32 32 0 0 0 -32-32h-328a32 32 0 0 0 0 64h328a32 32 0 0 0 32-32z" fill="#3a474e"/><path d="m200 128-16-16-16 16-16-16-16 16-16-16v144h96v-144z" fill="#e3e8f6"/><path d="m200 128-16-16-16 16-16-16-16 16v128h80v-144z" fill="#fff"/><path d="m216 320v16a16 16 0 0 0 16 16h48a16 16 0 0 0 16-16v-16z" fill="#283238"/><rect fill="#e3e8f6" height="64" rx="16" width="144" x="256" y="96"/><path d="m272 160h24l64-64h-48l-54.562 54.562a15.979 15.979 0 0 0 14.562 9.438z" fill="#fff"/><g fill="#283238"><path d="m320 216h-8a8 8 0 0 0 0 16h8a8 8 0 0 0 0-16z"/><path d="m352 216h-8a8 8 0 0 0 0 16h8a8 8 0 0 0 0-16z"/><path d="m384 216h-8a8 8 0 0 0 0 16h8a8 8 0 0 0 0-16z"/><path d="m408 232h8a8 8 0 0 0 0-16h-8a8 8 0 0 0 0 16z"/><path d="m320 248h-8a8 8 0 0 0 0 16h8a8 8 0 0 0 0-16z"/><path d="m288 216h-8a8 8 0 0 0 0 16h8a8 8 0 0 0 0-16z"/><path d="m288 248h-8a8 8 0 0 0 0 16h8a8 8 0 0 0 0-16z"/><path d="m352 248h-8a8 8 0 0 0 0 16h8a8 8 0 0 0 0-16z"/><path d="m384 248h-8a8 8 0 0 0 0 16h8a8 8 0 0 0 0-16z"/><path d="m416 248h-8a8 8 0 0 0 0 16h8a8 8 0 0 0 0-16z"/></g><path d="m168 216a8.008 8.008 0 0 1 -8-8 8 8 0 0 0 -16 0 23.959 23.959 0 0 0 16 22.525v1.475a8 8 0 0 0 16 0v-1.474a23.941 23.941 0 0 0 -8-46.526 8 8 0 1 1 8-8 8 8 0 0 0 16 0 23.96 23.96 0 0 0 -16-22.526v-1.474a8 8 0 0 0 -16 0v1.474a23.941 23.941 0 0 0 8 46.526 8 8 0 0 1 0 16z" fill="#eeab46"/><path d="m240 248h-144a8 8 0 0 0 0 16h144a8 8 0 0 0 0-16z" fill="#283238"/></g></svg>