<svg height="512" viewBox="0 0 64 64" width="512" xmlns="http://www.w3.org/2000/svg"><g id="courier-delivery-logistic-officer-personnel"><path d="m42 17v-4a10 10 0 0 0 -20 0v4z" fill="#ffcd00"/><path d="m28 11h8a6 6 0 0 1 6 6 0 0 0 0 1 0 0h-20a0 0 0 0 1 0 0 6 6 0 0 1 6-6z" fill="#ddb200"/><path d="m32 38a6.973 6.973 0 0 0 6.509-4.438l-.949-.212a2 2 0 0 1 -1.56-1.95v-3.347a8.921 8.921 0 0 1 -8 0v3.347a2 2 0 0 1 -1.56 1.95l-.949.212a6.973 6.973 0 0 0 6.509 4.438z" fill="#ffac96"/><path d="m11 57h21v-19a6.973 6.973 0 0 1 -6.509-4.438l-6.8 1.613a10 10 0 0 0 -7.691 9.73z" fill="#ffcd00"/><path d="m53 57h-21v-19a6.973 6.973 0 0 0 6.509-4.438l6.8 1.613a10 10 0 0 1 7.691 9.73z" fill="#ebbf00"/><path d="m24 16v6a8 8 0 0 0 16 0v-6z" fill="#ffbcab"/><path d="m40 22h1a3 3 0 0 0 0-6h-1z" fill="#ffac96"/><path d="m23 22h1v-6h-1a3 3 0 0 0 0 6z" fill="#ffac96"/><path d="m5 51h24v6h-24z" fill="#006df0"/><path d="m39 57h-7-3-24-2v4h58v-4h-2z" fill="#58595b"/><path d="m13 54v-3-3h-4v3 3z" fill="#2488ff"/><path d="m17 48v-7h-5.24-6.76v7h4 4z" fill="#ed1c24"/><path d="m21 48h6v3h-6z" fill="#5eac24"/><path d="m59 43h-20l3-4h14z" fill="#a78966"/><path d="m51 43-1-4h-2l-1 4z" fill="#ffa733"/><path d="m39 43h20v14h-20z" fill="#957856"/><path d="m47 57h12v-12a12 12 0 0 1 -12 12z" fill="#806749"/><path d="m47 43h4v4h-4z" fill="#ff9811"/><path d="m54.707 48.293a1 1 0 0 0 -1.414 0l-2 2a1 1 0 0 0 1.414 1.414l.293-.293v2.586a1 1 0 0 0 2 0v-2.586l.293.293a1 1 0 0 0 1.414-1.414z" fill="#6a563d"/><path d="m29 21a1 1 0 0 0 1-1v-1a1 1 0 0 0 -2 0v1a1 1 0 0 0 1 1z" fill="#58595b"/><path d="m35 21a1 1 0 0 0 1-1v-1a1 1 0 0 0 -2 0v1a1 1 0 0 0 1 1z" fill="#58595b"/><path d="m47 52h-4a1 1 0 0 0 0 2h4a1 1 0 0 0 0-2z" fill="#806749"/><path d="m35.706 24.294a1 1 0 0 0 -1.413 0 3.318 3.318 0 0 1 -4.582 0 1 1 0 0 0 -1.411 1.415 5.239 5.239 0 0 0 7.41 0 1 1 0 0 0 -.004-1.415z" fill="#58595b"/></g></svg>