<svg height="512" viewBox="0 0 64 64" width="512" xmlns="http://www.w3.org/2000/svg"><g id="machine-distribution-delivery-logistic-parcel_box" data-name="machine-distribution-delivery-logistic-parcel box"><path d="m51 13h-12v8h12v4l10-8-10-8z" fill="#ed1c24"/><path d="m61 54a7 7 0 0 1 -7 7h-44a7 7 0 0 1 0-14h44a7 7 0 0 1 7 7z" fill="#808285"/><path d="m57 54a3.009 3.009 0 0 1 -3 3h-44a3 3 0 0 1 0-6h44a3.009 3.009 0 0 1 3 3z" fill="#ffcd00"/><circle cx="32" cy="54" fill="#58595b" r="2"/><circle cx="41" cy="54" fill="#58595b" r="2"/><circle cx="50" cy="54" fill="#58595b" r="2"/><circle cx="14" cy="54" fill="#58595b" r="2"/><circle cx="23" cy="54" fill="#58595b" r="2"/><path d="m10 27h24v20h-24z" fill="#957856"/><path d="m14 47h20v-20a20 20 0 0 1 -20 20z" fill="#806749"/><path d="m34 27h-24l3-4h18z" fill="#a78966"/><path d="m19 27h6v6h-6z" fill="#ffcd00"/><path d="m25 27-1-4h-4l-1 4z" fill="#ffda44"/><path d="m54 35h-16l3-4h10z" fill="#a78966"/><path d="m48 35-1-4h-2l-1 4z" fill="#ffda44"/><path d="m38 35h16v12h-16z" fill="#957856"/><path d="m42 47h12v-12a12 12 0 0 1 -12 12z" fill="#806749"/><path d="m44 35h4v4h-4z" fill="#ffcd00"/><g fill="#6a563d"><path d="m15 39h-1a1 1 0 0 0 0 2h1a1 1 0 0 0 0-2z"/><path d="m22 39h-4a1 1 0 0 0 0 2h4a1 1 0 0 0 0-2z"/><path d="m42 43h-1a1 1 0 0 0 0 2h1a1 1 0 0 0 0-2z"/><path d="m49 43h-4a1 1 0 0 0 0 2h4a1 1 0 0 0 0-2z"/><path d="m15 42h-1a1 1 0 0 0 0 2h1a1 1 0 0 0 0-2z"/><path d="m22 42h-4a1 1 0 0 0 0 2h4a1 1 0 0 0 0-2z"/></g><path d="m28.707 34.293a1 1 0 0 0 -1.414 0l-2 2a1 1 0 0 0 1.414 1.414l.293-.293v5.586a1 1 0 0 0 2 0v-5.586l.293.293a1 1 0 0 0 1.414-1.414z" fill="#ff9811"/></g></svg>