<svg id="Layer_1" enable-background="new 0 0 512 512" viewBox="0 0 512 512" xmlns="http://www.w3.org/2000/svg"><g clip-rule="evenodd" fill-rule="evenodd"><g><path d="m42.27 9h427.46c18.299 0 33.27 14.971 33.27 33.27v427.46c0 18.298-14.971 33.27-33.27 33.27h-427.46c-18.299 0-33.27-14.971-33.27-33.27v-427.46c0-18.299 14.971-33.27 33.27-33.27z" fill="#64b5f6"/><path d="m49.57 128.861h412.862c3.3 0 6 2.7 6 6v327.57c0 3.3-2.7 6-6 6h-412.862c-3.3 0-6-2.7-6-6v-327.57c0-3.3 2.7-6 6-6z" fill="#e6f8ff"/><path d="m9 94.292h494v-52.022c0-18.299-14.971-33.27-33.27-33.27h-427.46c-18.299 0-33.27 14.971-33.27 33.27z" fill="#004960"/><path d="m63.702 62.647c6.058 0 11-4.941 11-11s-4.941-11-11-11-11 4.941-11 11c0 6.058 4.942 11 11 11z" fill="#fc685b"/><path d="m109.311 62.647c6.059 0 11-4.941 11-11s-4.941-11-11-11c-6.058 0-11 4.941-11 11 0 6.058 4.942 11 11 11z" fill="#ffda2d"/><ellipse cx="154.921" cy="51.646" fill="#72d561" rx="11" ry="11" transform="matrix(.999 -.036 .036 .999 -1.743 5.555)"/><path d="m454.223 43.646c4.418 0 8 3.582 8 8s-3.582 8-8 8h-144.799c-4.418 0-8-3.582-8-8s3.582-8 8-8z" fill="#eff4f7"/></g><path d="m33.57 290.646h214.43v-171.785h16v171.785h214.431v16h-214.431v171.785h-16v-171.785h-214.43z" fill="#64b5f6"/><g><path d="m362.216 150.366c46.674 0 84.512 37.837 84.512 84.512 0 15.396-4.119 29.83-11.313 42.262l-25.974-14.996c4.641-8.021 7.299-17.333 7.299-27.266 0-30.113-24.411-54.524-54.524-54.524s-54.524 24.411-54.524 54.524c0 9.933 2.657 19.244 7.298 27.265l-25.974 14.996c-7.193-12.432-11.312-26.865-11.312-42.261 0-46.674 37.837-84.512 84.512-84.512z" fill="#ffda2d"/><path d="m334.949 187.651c-4.999-8.658-9.998-17.316-14.997-25.974-12.824 7.42-23.518 18.114-30.938 30.939-7.193 12.432-11.31 26.867-11.31 42.263h29.988c0-9.933 2.656-19.246 7.297-27.266 4.787-8.275 11.686-15.175 19.96-19.962z" fill="#ffc700"/><path d="m319.953 161.677c-12.824 7.42-23.518 18.114-30.938 30.939 8.658 4.999 17.316 9.997 25.974 14.996 4.787-8.274 11.687-15.173 19.961-19.961 8.021-4.641 17.333-7.297 27.267-7.297 0-9.996 0-19.992 0-29.988-15.397 0-29.832 4.117-42.264 11.311z" fill="#72d561"/><path d="m362.216 156.926v-6.56c-15.396 0-29.831 4.117-42.263 11.311 4.999 8.658 9.998 17.316 14.997 25.974 8.021-4.641 17.333-7.297 27.267-7.297 9.933 0 19.245 2.656 27.266 7.297 4.999-8.658 9.997-17.316 14.996-25.975-12.432-7.193-26.867-11.31-42.262-11.31v6.56z" fill="#3cbe52"/><path d="m404.479 161.677c-12.432-7.193-26.867-11.31-42.262-11.31v29.988c9.933 0 19.246 2.656 27.266 7.297 8.274 4.787 15.173 11.686 19.961 19.961 8.658-4.999 17.316-9.998 25.974-14.996-7.421-12.826-18.115-23.52-30.939-30.94z" fill="#64b5f6"/><path d="m435.417 192.615c-7.42-12.825-18.114-23.519-30.939-30.939-4.999 8.658-9.998 17.316-14.996 25.975 8.274 4.787 15.173 11.686 19.961 19.961 4.641 8.021 7.297 17.333 7.297 27.266h29.988c-.001-15.396-4.118-29.83-11.311-42.263z" fill="#42a5f5"/><path d="m446.727 234.878c0-15.396-4.117-29.831-11.31-42.263-8.658 4.999-17.316 9.997-25.974 14.996 4.641 8.021 7.297 17.333 7.297 27.266 0 9.934-2.658 19.245-7.299 27.266l25.974 14.996c7.193-12.431 11.312-26.864 11.312-42.261z" fill="#fc685b"/><path d="m435.414 277.14c7.193-12.432 11.313-26.866 11.313-42.262-9.996 0-19.992 0-29.988 0 0 9.934-2.658 19.245-7.299 27.266z" fill="#f35244"/><path d="m389.578 209.883c3.814-2.192 8.683-.876 10.875 2.938s.876 8.683-2.938 10.875l-31.331 18.089c-3.814 2.192-8.683.876-10.875-2.938s-.876-8.683 2.938-10.875z" fill="#8d9ca8"/><path d="m362.216 250.002c8.33 0 15.124-6.794 15.124-15.124s-6.794-15.124-15.124-15.124-15.124 6.794-15.124 15.124c-.001 8.33 6.794 15.124 15.124 15.124z" fill="#64b5f6"/></g><g><ellipse cx="149.785" cy="213.754" fill="#72d561" rx="63.77" ry="63.77" transform="matrix(.707 -.707 .707 .707 -107.276 168.521)"/><path d="m149.785 149.983v63.77l58.569 25.266c3.347-7.748 5.201-16.291 5.201-25.267 0-35.218-28.551-63.769-63.77-63.769z" fill="#ffda2d"/><path d="m208.354 239.02-58.569-25.267-38.294 50.997c10.664 8.02 23.924 12.773 38.294 12.773 26.243 0 48.784-15.852 58.569-38.503z" fill="#fc685b"/><ellipse cx="149.785" cy="213.754" fill="#eff4f7" rx="26.765" ry="26.764" transform="matrix(.055 -.999 .999 .055 -71.924 351.489)"/></g><g><path d="m296.683 420.292h14.228c2.203 0 4 1.797 4 4v19.969c0 2.203-1.797 4-4 4h-14.228c-2.203 0-4-1.797-4-4v-19.969c0-2.203 1.797-4 4-4z" fill="#fc685b"/><path d="m338.833 399.945h14.228c2.203 0 4 1.797 4 4v40.317c0 2.203-1.797 4-4 4h-14.228c-2.203 0-4-1.797-4-4v-40.317c0-2.203 1.797-4 4-4z" fill="#ffda2d"/><path d="m380.982 379.596h14.228c2.203 0 4 1.797 4 4v60.666c0 2.203-1.797 4-4 4h-14.228c-2.203 0-4-1.797-4-4v-60.666c.001-2.203 1.797-4 4-4z" fill="#72d561"/><path d="m423.132 359.249h14.228c2.203 0 4 1.797 4 4v81.013c0 2.203-1.797 4-4 4h-14.228c-2.203 0-4-1.797-4-4v-81.013c0-2.203 1.797-4 4-4z" fill="#64b5f6"/><path d="m395.438 340.092-87.083 50.278c-3.814 2.209-8.697.908-10.906-2.906s-.908-8.697 2.906-10.906l87.093-50.283c-3.555-1.365-5.725-5.124-4.97-8.99.846-4.332 5.043-7.158 9.375-6.312l19.366 3.834c4.332.846 7.158 5.043 6.312 9.375-.094.48-.229.942-.401 1.383l-6.242 18.338c-1.415 4.177-5.948 6.415-10.125 5-3.74-1.27-5.925-5.038-5.325-8.811z" fill="#8d9ca8"/></g><g><path d="m82.823 328.103c-2.518 0-4.571 2.053-4.571 4.57v112.877c0 2.517 2.054 4.57 4.571 4.57h133.924c2.518 0 4.571-2.054 4.571-4.57v-112.877c0-2.517-2.052-4.57-4.57-4.57z" fill="#e2e3e3"/><path d="m161.612 413.157c-4.418 0-8-3.582-8-8s3.582-8 8-8h6.823c4.418 0 8 3.582 8 8s-3.582 8-8 8zm30.476 23.179c-4.418 0-8-3.582-8-8s3.582-8 8-8h6.823c4.418 0 8 3.582 8 8s-3.582 8-8 8zm-30.476 0c-4.418 0-8-3.582-8-8s3.582-8 8-8h6.823c4.418 0 8 3.582 8 8s-3.582 8-8 8zm-30.477 0c-4.418 0-8-3.582-8-8s3.582-8 8-8h6.823c4.418 0 8 3.582 8 8s-3.582 8-8 8zm60.953-23.179c-4.418 0-8-3.582-8-8s3.582-8 8-8h6.823c4.418 0 8 3.582 8 8s-3.582 8-8 8z" fill="#fc685b"/><path d="m100.658 436.336c-4.418 0-8-3.582-8-8s3.582-8 8-8h6.824c4.418 0 8 3.582 8 8s-3.582 8-8 8zm0-46.359c-4.418 0-8-3.582-8-8s3.582-8 8-8h6.824c4.418 0 8 3.582 8 8s-3.582 8-8 8zm0 23.18c-4.418 0-8-3.582-8-8s3.582-8 8-8h6.824c4.418 0 8 3.582 8 8s-3.582 8-8 8zm30.477 0c-4.418 0-8-3.582-8-8s3.582-8 8-8h6.823c4.418 0 8 3.582 8 8s-3.582 8-8 8zm60.953-23.18c-4.418 0-8-3.582-8-8s3.582-8 8-8h6.823c4.418 0 8 3.582 8 8s-3.582 8-8 8zm-30.476 0c-4.418 0-8-3.582-8-8s3.582-8 8-8h6.823c4.418 0 8 3.582 8 8s-3.582 8-8 8zm-30.477 0c-4.418 0-8-3.582-8-8s3.582-8 8-8h6.823c4.418 0 8 3.582 8 8s-3.582 8-8 8z" fill="#64b5f6"/><path d="m221.318 361.249v-28.576c0-2.517-2.052-4.57-4.57-4.57h-18.439-24.262-24.262-24.262-24.262-18.438c-2.518 0-4.571 2.053-4.571 4.57v28.576z" fill="#004960"/><path d="m206.309 335.88c0 4.418-3.582 8-8 8s-8-3.582-8-8v-15.556c0-4.418 3.582-8 8-8s8 3.582 8 8zm-97.047.001c0 4.418-3.582 8-8 8s-8-3.582-8-8v-15.556c0-4.418 3.582-8 8-8s8 3.582 8 8zm24.261 0c0 4.418-3.582 8-8 8s-8-3.582-8-8v-15.556c0-4.418 3.582-8 8-8s8 3.582 8 8zm24.262 0c0 4.418-3.582 8-8 8s-8-3.582-8-8v-15.556c0-4.418 3.582-8 8-8s8 3.582 8 8zm24.262-.001c0 4.418-3.582 8-8 8s-8-3.582-8-8v-15.556c0-4.418 3.582-8 8-8s8 3.582 8 8z" fill="#e2e3e3"/></g></g></svg>