<svg height="512" viewBox="0 0 64 64" width="512" xmlns="http://www.w3.org/2000/svg"><g id="mobilephone-online-delivery-logistic-parcel_box" data-name="mobilephone-online-delivery-logistic-parcel box"><path d="m14 9h36v42h-36z" fill="#ffdaaa"/><path d="m14 51h36v-36a36 36 0 0 1 -36 36z" fill="#ffc477"/><path d="m46 3h-28a4 4 0 0 0 -4 4v2h36v-2a4 4 0 0 0 -4-4z" fill="#006df0"/><path d="m46 57h-28a4 4 0 0 1 -4-4v-2h36v2a4 4 0 0 1 -4 4z" fill="#006df0"/><path d="m40 61v-1.524a2 2 0 0 0 -.215-.9s-.605-1.246-.715-1.576a9.891 9.891 0 0 1 -.62-4 10.006 10.006 0 0 1 3.44-7.04l-3.82-6.62a4 4 0 0 1 1.47-5.46 3.932 3.932 0 0 1 2-.54 3.994 3.994 0 0 1 3.46 2l1 1.73 4 6.93v-15l3.864 4.27a16 16 0 0 1 4.136 10.745v8.157a12.012 12.012 0 0 1 -1.267 5.362l-.519 1.037a2 2 0 0 0 -.211.9v1.529z" fill="#ffa087"/><path d="m34 35h-16l3-3h10z" fill="#a78966"/><path d="m28 35-1-3h-2l-1 3z" fill="#ffda44"/><path d="m18 35h16v12h-16z" fill="#957856"/><path d="m22 47h12v-12a12 12 0 0 1 -12 12z" fill="#806749"/><path d="m24 35h4v4h-4z" fill="#ffcd00"/><path d="m34 16h-16l3-3h10z" fill="#a78966"/><path d="m28 16-1-3h-2l-1 3z" fill="#ffda44"/><path d="m18 16h16v12h-16z" fill="#957856"/><path d="m22 28h12v-12a12 12 0 0 1 -12 12z" fill="#806749"/><path d="m24 16h4v4h-4z" fill="#ffcd00"/><path d="m22 24h-1a1 1 0 0 0 0 2h1a1 1 0 0 0 0-2z" fill="#6a563d"/><path d="m29 24h-4a1 1 0 0 0 0 2h4a1 1 0 0 0 0-2z" fill="#6a563d"/><path d="m22 43h-1a1 1 0 0 0 0 2h1a1 1 0 0 0 0-2z" fill="#6a563d"/><path d="m29 43h-4a1 1 0 0 0 0 2h4a1 1 0 0 0 0-2z" fill="#6a563d"/><path d="m30 7h4a1 1 0 0 0 0-2h-4a1 1 0 0 0 0 2z" fill="#f1f2f2"/><path d="m34 53h-4a1 1 0 0 0 0 2h4a1 1 0 0 0 0-2z" fill="#f1f2f2"/><g fill="#ff7956"><path d="m39 12h-1a1 1 0 0 0 0 2h1a1 1 0 0 0 0-2z"/><path d="m46 12h-4a1 1 0 0 0 0 2h4a1 1 0 0 0 0-2z"/><path d="m39 16h-1a1 1 0 0 0 0 2h1a1 1 0 0 0 0-2z"/><path d="m46 16h-4a1 1 0 0 0 0 2h4a1 1 0 0 0 0-2z"/><path d="m39 20h-1a1 1 0 0 0 0 2h1a1 1 0 0 0 0-2z"/><path d="m46 20h-4a1 1 0 0 0 0 2h4a1 1 0 0 0 0-2z"/><path d="m39 24h-1a1 1 0 0 0 0 2h1a1 1 0 0 0 0-2z"/><path d="m46 24h-4a1 1 0 0 0 0 2h4a1 1 0 0 0 0-2z"/><path d="m39 28h-1a1 1 0 0 0 0 2h1a1 1 0 0 0 0-2z"/><path d="m46 28h-4a1 1 0 0 0 0 2h4a1 1 0 0 0 0-2z"/></g></g></svg>