<svg height="512" viewBox="0 0 64 64" width="512" xmlns="http://www.w3.org/2000/svg"><g id="motorcycle-transporation-delivery-logistic-shipping"><circle cx="19" cy="54" fill="#58595b" r="7"/><circle cx="52" cy="54" fill="#58595b" r="7"/><path d="m47.07 39h3.93a10 10 0 0 1 10 10h-14.03z" fill="#cc7400"/><path d="m23 35h11v13h4a6.018 6.018 0 0 0 6-6v-17h4l2.641 17.828a8 8 0 0 1 -7.914 9.172h-38.727l1-5 .586-1.759a16 16 0 0 1 9.561-9.921l.853-.32h18" fill="#ff9811"/><path d="m53 24h2v-6h-2a3 3 0 0 0 0 6z" fill="#ffa733"/><path d="m26 40h-4.411a11 11 0 0 0 -10.672 8.332l-.917 3.668h16a4 4 0 0 0 4-4v-4a4 4 0 0 0 -4-4z" fill="#cc7400"/><circle cx="19" cy="54" fill="#d1d3d4" r="2"/><circle cx="52" cy="54" fill="#d1d3d4" r="2"/><path d="m36 33a2 2 0 0 0 -2-2h-28v2a2 2 0 0 0 2 2h28z" fill="#58595b"/><path d="m7 49.5a2.5 2.5 0 0 0 -2.5-2.5h-1.5v5h1.5a2.5 2.5 0 0 0 2.5-2.5z" fill="#ed1c24"/><path d="m8 11h24v20h-24z" fill="#957856"/><path d="m12 31h20v-20a20 20 0 0 1 -20 20z" fill="#806749"/><path d="m32 11h-24l3-4h18z" fill="#b39a7c"/><path d="m17 11h6v6h-6z" fill="#ffcd00"/><path d="m23 11-1-4h-4l-1 4z" fill="#ffda44"/><rect fill="#ee8700" height="8" rx="2" width="10" x="41" y="17"/><path d="m43.847 20.335a1.5 1.5 0 0 0 -1.837-1.06l-4.83 1.294a1.5 1.5 0 1 0 .776 2.9l3.044-.818 1.786-.479a1.5 1.5 0 0 0 1.061-1.837z" fill="#6d6e71"/><g fill="#6a563d"><path d="m13 23h-1a1 1 0 0 0 0 2h1a1 1 0 0 0 0-2z"/><path d="m20 23h-4a1 1 0 0 0 0 2h4a1 1 0 0 0 0-2z"/><path d="m13 26h-1a1 1 0 0 0 0 2h1a1 1 0 0 0 0-2z"/><path d="m20 26h-4a1 1 0 0 0 0 2h4a1 1 0 0 0 0-2z"/></g><path d="m26.707 18.293a1 1 0 0 0 -1.414 0l-2 2a1 1 0 0 0 1.414 1.414l.293-.293v5.586a1 1 0 0 0 2 0v-5.586l.293.293a1 1 0 0 0 1.414-1.414z" fill="#ff9811"/><path d="m26 43h-7a1 1 0 0 0 0 2h7a1 1 0 0 0 0-2z" fill="#aa6100"/><path d="m26 47h-11a1 1 0 0 0 0 2h11a1 1 0 0 0 0-2z" fill="#aa6100"/></g></svg>