<svg height="512" viewBox="0 0 64 64" width="512" xmlns="http://www.w3.org/2000/svg"><g id="delivery-logistic-parcel_box-shipping-send" data-name="delivery-logistic-parcel box-shipping-send"><path d="m15 23h46v38h-46z" fill="#957856"/><path d="m23 61h38v-38a38 38 0 0 1 -38 38z" fill="#806749"/><path d="m12.68 33.66a7.985 7.985 0 0 1 -5.65 2.34h-4.03v5h4.026a8 8 0 0 0 5.657-2.343l2.317-2.317v-5z" fill="#ffac96"/><path d="m30.41 48.41a1.955 1.955 0 0 1 -1.41.59h-2a2.006 2.006 0 0 1 2 2 2.015 2.015 0 0 1 -2 2h-4a2.006 2.006 0 0 1 2 2 2.015 2.015 0 0 1 -2 2h-12.79a3.993 3.993 0 0 1 -2.22-.67l-.98-.66a3.993 3.993 0 0 0 -2.22-.67h-1.79v-14h4.03a7.985 7.985 0 0 0 5.65-2.34l6.15-6.15.71.71a3 3 0 0 1 0 4.24l-2.13 2.13-1.41 1.41h10.89a2.089 2.089 0 0 1 2.05 1.51 2.011 2.011 0 0 1 -1.94 2.49h1.89a2.089 2.089 0 0 1 2.05 1.51 1.962 1.962 0 0 1 -.53 1.9z" fill="#ffbcab"/><path d="m24.41 55.41a1.955 1.955 0 0 1 -1.41.59h-12.79a3.993 3.993 0 0 1 -2.22-.67l-.98-.66a3.993 3.993 0 0 0 -2.22-.67h-1.79v1h1.79a3.993 3.993 0 0 1 2.22.67l.98.66a3.993 3.993 0 0 0 2.22.67h12.79a1.974 1.974 0 0 0 1.929-2.5 1.932 1.932 0 0 1 -.519.91z" fill="#ffa087"/><path d="m17.41 38.59-2.41 2.41h1l1.41-1.41 2.13-2.13a2.992 2.992 0 0 0 .83-2.62 2.979 2.979 0 0 1 -.83 1.62z" fill="#ffa087"/><path d="m61 23h-46l6-10h34z" fill="#a78966"/><path d="m44 23h-12l2-10h8z" fill="#ffda44"/><path d="m32 23h12v12h-12z" fill="#ffcd00"/><circle cx="53" cy="11" fill="#7ed63e" r="8"/><path d="m52.707 42.293a1 1 0 0 0 -1.414 0l-3 3a1 1 0 0 0 1.414 1.414l1.293-1.293v9.586a1 1 0 0 0 2 0v-9.586l1.293 1.293a1 1 0 0 0 1.414-1.414z" fill="#ff9811"/><path d="m51.293 13.707a1 1 0 0 0 1.414 0l4.243-4.243a1 1 0 0 0 -1.414-1.414l-3.536 3.536-1.414-1.414a1 1 0 0 0 -1.414 1.414z" fill="#f1f2f2"/><g fill="#ffa087"><path d="m28.929 50.5a1.932 1.932 0 0 1 -.519.909 1.955 1.955 0 0 1 -1.41.591h-7v1h7a1.974 1.974 0 0 0 1.929-2.5z"/><path d="m28.929 42.5a1.932 1.932 0 0 1 -.519.909 1.955 1.955 0 0 1 -1.41.591h-7v1h7a1.974 1.974 0 0 0 1.929-2.5z"/><path d="m30.929 46.5a1.932 1.932 0 0 1 -.519.909 1.955 1.955 0 0 1 -1.41.591h-9v1h9a1.974 1.974 0 0 0 1.929-2.5z"/></g></g></svg>