<svg id="Layer_2" viewBox="0 0 512 512" xmlns="http://www.w3.org/2000/svg" data-name="Layer 2"><g id="Icon"><g id="Dollar"><g id="Money"><rect fill="#76ab3a" height="257.89" rx="4.61" transform="matrix(.707 -.707 .707 .707 -106.04 256)" width="471.58" x="20.21" y="127.05"/><path d="m154.68 47.84h202.63v416.32h-202.63z" fill="#316729" transform="matrix(.707 .707 -.707 .707 256 -106.04)"/><path d="m360.94 92.61 62.91 62.91c-2.87 1.36-5.54 3.24-7.89 5.66-10.06 10.33-10.42 26.99-.78 37.71 1.14 1.27 2.37 2.41 3.67 3.42 2.41 1.87 2.7 5.39.55 7.54l-209.54 209.54c-2.16 2.16-5.67 1.86-7.54-.55-1.01-1.3-2.15-2.53-3.42-3.67-10.72-9.64-27.39-9.27-37.71.78-.97.95-1.86 1.95-2.66 2.99-1.82 2.37-5.34 2.56-7.45.44l-58.45-58.45c-2.12-2.12-1.93-5.63.44-7.45 1.04-.8 2.04-1.69 2.99-2.66 10.06-10.32 10.42-26.99.78-37.71-1.14-1.27-2.37-2.41-3.67-3.42-2.41-1.87-2.7-5.39-.55-7.54l209.53-209.54c2.16-2.16 5.67-1.86 7.54.55 1.01 1.3 2.15 2.52 3.42 3.67 10.72 9.64 27.39 9.28 37.71-.78.97-.95 1.86-1.95 2.66-2.99 1.82-2.37 5.34-2.56 7.45-.44z" fill="#76ab3a"/><g fill="#316729"><circle cx="256" cy="256" r="69.08"/><circle cx="347.51" cy="164.5" r="23.03"/><circle cx="164.5" cy="347.51" r="23.03"/></g></g><g id="Money-2" data-name="Money"><rect fill="#92d449" height="280" rx="5" width="512" y="116"/><path d="m146 30h220v452h-220z" fill="#45903a" transform="matrix(0 1 -1 0 512 0)"/><path d="m462 210.64v90.72c0 3.07-2.73 5.37-5.77 4.94-1.71-.24-3.47-.34-5.26-.28-15.4.51-28.1 12.94-28.92 28.32-.11 2.03-.02 4.01.26 5.94.43 3.02-1.89 5.72-4.94 5.72h-322.73c-3.05 0-5.37-2.7-4.94-5.72.28-1.93.37-3.92.26-5.94-.82-15.39-13.52-27.81-28.92-28.32-1.79-.06-3.55.04-5.26.28-3.04.43-5.77-1.87-5.77-4.94v-90.72c0-3.07 2.73-5.37 5.77-4.94 1.71.24 3.47.34 5.26.28 15.4-.51 28.1-12.93 28.92-28.32.11-2.03.02-4.02-.26-5.94-.43-3.02 1.89-5.72 4.94-5.72h322.72c3.05 0 5.37 2.7 4.94 5.72-.27 1.93-.37 3.91-.26 5.94.82 15.39 13.52 27.81 28.92 28.32 1.79.06 3.55-.04 5.26-.28 3.04-.43 5.77 1.87 5.77 4.94z" fill="#92d449"/><g fill="#45903a"><circle cx="256" cy="256" r="75"/><circle cx="396.5" cy="256" r="25"/><circle cx="115.5" cy="256" r="25"/></g></g><path id="Icon-2" d="m264.64 274.38c0-2.95-.73-5.26-2.18-6.94s-4.01-3.27-7.67-4.76-7.04-3-10.14-4.54c-3.1-1.53-5.77-3.3-8.01-5.32s-3.96-4.35-5.15-7c-1.2-2.65-1.79-5.86-1.79-9.63 0-6.31 2.13-11.51 6.38-15.6 4.26-4.09 9.93-6.47 17.03-7.14v-11.82h8.9v12.04c6.83 1.01 12.2 3.82 16.1 8.43s5.85 10.46 5.85 17.56h-18.93c0-3.88-.75-6.87-2.24-8.96s-3.62-3.14-6.38-3.14c-2.46 0-4.38.78-5.74 2.32-1.36 1.55-2.04 3.69-2.04 6.41s.78 4.96 2.35 6.58 4.09 3.17 7.56 4.65 6.75 3.01 9.83 4.59c3.08 1.59 5.74 3.39 7.98 5.4 2.24 2.02 3.99 4.37 5.26 7.06s1.9 5.92 1.9 9.69c0 6.38-2.03 11.59-6.08 15.63-4.05 4.03-9.57 6.38-16.55 7.06v11.26h-8.9v-11.31c-8.14-.86-14.38-3.65-18.73-8.37s-6.52-10.95-6.52-18.68h18.87c0 4.26.94 7.5 2.83 9.72 1.88 2.22 4.56 3.33 8.04 3.33 2.54 0 4.54-.76 5.99-2.27s2.18-3.59 2.18-6.24z" fill="#92d449" data-name="Icon"/></g></g></svg>