<?xml version="1.0" encoding="utf-8"?>
<!-- Generator: Adobe Illustrator 19.0.0, SVG Export Plug-In . SVG Version: 6.00 Build 0)  -->
<svg version="1.1" id="Layer_1" xmlns="http://www.w3.org/2000/svg" xmlns:xlink="http://www.w3.org/1999/xlink" x="0px" y="0px"
	 viewBox="0 0 500 500" style="enable-background:new 0 0 500 500;" xml:space="preserve">
<style type="text/css">
	.st0{fill:#3E3D3F;}
</style>
<g id="XMLID_34_">
	<path id="XMLID_36_" class="st0" d="M415.1,229.6c-0.6-5.1-4.5-9.2-9.2-11c-5.9-2.2-13.3-0.2-16.7,5.3c-3.2,4.6-2.7,10.4-2.7,15.8
		c2.9,0.1,5.7,0,8.6,0c0.1-2.7-0.4-5.5,0.2-8.2c0.3-1.7,1.1-3.4,2.4-4.5c2.1-1.8,5.9-1.3,7.3,1.2c1.4,2.5,1.3,5.4,1.3,8.1
		c0,2.2-1,4.3-1.8,6.3c-5.9,13.2-12.8,26-19.5,38.9c9.7,0,19.4,0,29,0c0-2.8,0-5.7,0-8.5c-5.2,0-10.5,0-15.7,0
		c5.3-9.3,10.5-18.7,14.9-28.5C415.5,239.9,415.7,234.6,415.1,229.6z"/>
	<path id="XMLID_39_" class="st0" d="M132.8,222.5c-3.8-2.9-9-3.4-13.6-2.6c-2.8,0.5-5.5,1.7-7.5,3.8c-2.7,2.7-4.1,6.5-5,10.2
		c-1.3,6.2-1.4,12.6-1.4,18.9c0.1,5.7,0.3,11.4,1.8,16.9c1,3.6,2.7,7.2,5.7,9.6c2.6,2.1,6,2.8,9.2,3c3.5,0.1,7.2-0.5,10.1-2.5
		c3-2,4.9-5.2,5.9-8.6c1.7-5.3,2-10.9,2.1-16.4c0-7.1,0.2-14.2-1.3-21.2C137.9,229.4,136.2,225.1,132.8,222.5z M131.1,257.8
		c-0.2,3.7-0.5,7.4-1.8,10.9c-0.6,1.7-1.7,3.4-3.3,4.4c-2.5,1.4-6,1-8-1.2c-1.9-2.2-2.6-5.1-3.1-7.9c-0.8-5.2-0.8-10.4-0.8-15.6
		c0.2-4.9,0.2-10,1.7-14.7c0.7-2.3,2.2-4.7,4.6-5.5c2.5-0.9,5.5-0.1,7.1,2c2.1,2.8,2.6,6.3,3,9.7
		C131.3,245.9,131.3,251.9,131.1,257.8z"/>
	<path id="XMLID_40_" class="st0" d="M90.6,228.3c0-2.7,0-5.3,0-8c-8.5,0-17,0-25.5,0c0,17.1,0,34.2,0,51.2c-0.1,3.3-0.1,6.7-0.1,10
		c3-0.1,6,0,9.1,0c0-9.3,0-18.5,0-27.8c5,0,10,0,14.9,0c0.1-2.7,0-5.4,0-8.1c-5,0-10,0-15,0c0-5.8,0-11.5,0-17.3
		C79.6,228.3,85.1,228.3,90.6,228.3z"/>
	<path id="XMLID_44_" class="st0" d="M175.3,251.7c3.7-0.5,7.3-2.3,9.4-5.5c2.3-3.7,2.6-8.4,2.2-12.6c-0.4-4.2-2.2-8.5-5.9-10.8
		c-3.6-2.5-8.2-2.6-12.4-2.5c-3.5-0.1-7,0.2-10.6,0.1c0,20.4,0,40.8,0,61.2c3,0,6.1,0,9.1,0c0-9.4,0-18.8,0-28.2
		c4.4,9.3,8.9,18.7,13.3,28c3.2,0,6.4,0.1,9.7,0.1c-0.2-1.7-1.2-3-1.9-4.5C183.9,268.5,179.5,260.2,175.3,251.7z M167,246.6
		c0-6.1,0-12.2,0-18.3c2.6,0.2,5.5-0.6,7.9,0.9c1.9,1.1,3.1,3.3,3,5.5c-0.1,2.5,0.4,5.1-0.7,7.4c-0.8,2.2-2.6,4.2-5.1,4.4
		C170.4,246.7,168.7,246.6,167,246.6z"/>
	<path id="XMLID_45_" class="st0" d="M204.3,220.2c-0.1,20.5,0,41,0,61.4c8.3,0,16.6,0,24.9,0c0-2.7,0-5.4,0-8.1c-5.5,0-11,0-16.4,0
		c0-6.6,0-13.2,0-19.8c4.9,0.1,9.9,0,14.8,0c0-2.7,0-5.4,0-8.1c-5,0-9.9,0-14.9,0c0-5.7,0-11.5,0-17.2c5.5,0,10.9,0,16.4,0
		c0-2.7,0-5.5,0-8.2C220.9,220.2,212.6,220.2,204.3,220.2z"/>
	<path id="XMLID_46_" class="st0" d="M258.8,259.3c-2.7-13.1-5.5-26.1-8.4-39.2c-2.9,0-5.7,0-8.6,0c4.3,20.4,8.7,40.9,13,61.3
		c2.5,0,5,0,7.6,0c4.5-20.4,9-40.9,13.4-61.3c-3,0-6.1,0-9.1,0C264.1,233.2,261.5,246.3,258.8,259.3z"/>
	<path id="XMLID_50_" class="st0" d="M315.7,228.3c0-2.7,0-5.5,0-8.2c-8.4,0-16.7,0-25.1,0c0,20.5,0,40.9,0,61.4c8.4,0,16.7,0,25,0
		c0-2.7,0-5.4,0-8.1c-5.5,0-10.9,0-16.4,0c0-6.6,0-13.2,0-19.7c5,0,9.9,0,14.9,0c0-2.7,0-5.4,0-8c-5,0-9.9,0-14.9,0
		c0-5.8,0-11.5,0-17.3C304.8,228.3,310.3,228.3,315.7,228.3z"/>
	<path id="XMLID_53_" class="st0" d="M350,251.7c3.6-0.5,7.2-2.2,9.3-5.4c2.4-3.8,2.7-8.5,2.3-12.8c-0.4-4.1-2.2-8.4-5.8-10.8
		c-3.6-2.5-8.2-2.7-12.4-2.6c-3.6-0.1-7.2,0.1-10.7,0.1c0,10.6,0,21.1,0,31.7c0.1,9.8-0.1,19.7,0.1,29.5c3,0,6,0,9,0
		c0.1-9.4,0-18.8,0.1-28.1c4.5,9.3,8.9,18.7,13.4,28c3.2,0,6.4,0,9.6,0.1c-0.3-1.9-1.4-3.5-2.2-5.2
		C358.3,268.1,354.1,259.9,350,251.7z M347.7,246.4c-1.9,0.5-4,0.1-5.9,0.2c0-6.1,0-12.2,0-18.3c1.5,0,2.9,0,4.4,0
		c3.3-0.1,6.5,2.7,6.4,6.1c0,1.9,0.1,3.9-0.1,5.8C351.8,242.8,350.4,245.6,347.7,246.4z"/>
	<path id="XMLID_58_" class="st0" d="M419.4,220.2c0,2.7,0,5.4,0,8.1c2.4,0,4.9,0,7.3,0c0,17.7,0,35.5,0,53.2c2.7,0,5.5,0,8.2,0
		c0-20.4,0-40.9,0-61.3C429.8,220.2,424.6,220.2,419.4,220.2z"/>
</g>
</svg>
