<?xml version="1.0" encoding="utf-8"?>
<!-- Generator: Adobe Illustrator 26.5.0, SVG Export Plug-In . SVG Version: 6.00 Build 0)  -->
<svg version="1.1" id="Ñëîé_1" xmlns="http://www.w3.org/2000/svg" xmlns:xlink="http://www.w3.org/1999/xlink" x="0px" y="0px"
	 viewBox="0 0 512 512" style="enable-background:new 0 0 512 512;" xml:space="preserve">
<style type="text/css">
	.st0{fill:#E70000;}
</style>
<g id="XMLID_23_">
	<path id="XMLID_25_" class="st0" d="M17.53,294.51c0.14-0.43,1.42-4.69,2.98-9.38c2.98-9.09,6.96-21.6,7.11-22.03
		c0-0.14-2.42-1.99-5.54-4.26c-2.98-2.27-9.24-6.68-13.78-9.95l-8.24-5.97l17.05-0.14l17.05-0.14l3.98-12.08
		c2.13-6.68,4.41-13.64,5.12-15.63c0.57-1.99,1.28-3.69,1.28-3.84c0.14-0.14,0.43,0.57,0.85,1.56c0.28,0.99,2.7,8.24,5.12,16.06
		l4.55,14.21H72.1c14.64,0,15.77,0.14,16.06,0.14c0.43,0-3.27,3.13-7.39,6.11c-15.35,11.08-19.18,13.93-19.04,14.21
		c0.14,0.28,9.52,29.13,10.09,31.12l0.28,0.85l-0.85-0.57c-0.71-0.43-9.52-6.82-12.93-9.38c-5.83-4.41-13.36-9.66-13.64-9.66
		s-13.22,9.09-22.17,15.77c-1.85,1.42-3.84,2.84-4.26,3.13l-0.99,0.71L17.53,294.51z"/>
	<path id="XMLID_36_" d="M417.12,323.36c0.14-0.28,0.71-1.85,1.42-3.55c0.57-1.71,2.27-5.68,3.55-8.81
		c2.42-5.97,5.68-13.93,6.54-16.06l0.43-1.14l-1.71-4.41c-2.84-7.11-6.54-16.06-7.53-18.9c-0.57-1.42-2.27-5.68-3.69-9.24
		c-4.12-10.09-7.39-18.19-8.81-21.88c-0.71-1.85-2.42-5.97-3.69-9.24c-1.28-3.27-3.41-8.53-4.69-11.51
		c-1.28-2.98-2.27-5.68-2.42-5.83c-0.14-0.14,0.71-0.28,2.42-0.14l2.56,0.14l0.99,2.7c0.57,1.56,2.98,7.67,5.54,13.64
		c2.42,5.97,5.12,12.79,6.11,15.21c0.99,2.42,2.56,6.39,3.55,8.81c0.99,2.42,2.27,5.4,2.56,6.54c0.43,1.14,1.71,4.41,2.98,7.39
		s2.56,6.25,2.98,7.25c1.28,3.55,5.12,12.79,5.26,12.79c0.14,0,0.71-1.42,1.42-3.13c1.42-3.41,6.96-16.91,9.38-22.88
		c0.85-2.13,2.42-5.83,3.41-8.38c2.27-5.4,6.96-17.05,9.09-22.31c0.85-2.13,2.7-6.54,4.12-10.09c1.42-3.41,2.7-6.54,2.84-6.96
		c0.28-0.71,0.43-0.71,2.98-0.85c2.13-0.14,2.56,0,2.42,0.28c-0.14,0.28-0.85,2.13-1.71,4.26c-1.71,4.26-3.98,9.66-6.68,16.34
		c-0.99,2.42-2.98,7.53-4.55,11.37c-6.11,15.06-7.67,18.76-8.67,21.17c-0.57,1.42-2.27,5.68-3.84,9.38
		c-1.56,3.69-2.98,7.11-3.13,7.53c-0.14,0.43-1.42,3.55-2.84,7.11c-1.42,3.55-2.84,6.68-2.84,7.11c-0.14,0.43-1.42,3.55-2.84,6.96
		c-1.42,3.41-3.13,7.39-3.55,8.81c-0.57,1.42-1.85,4.55-2.7,6.82l-1.71,4.12h-2.7C417.12,323.92,416.98,323.78,417.12,323.36z
		 M483.49,294.93c-2.7-0.43-5.97-1.56-7.96-2.84c-2.13-1.28-5.68-4.26-6.96-5.97c-3.69-4.83-6.11-11.08-6.39-16.34l-0.14-2.13
		l1.99-0.14l1.99-0.14l0.14,1.42c0.71,5.68,3.13,11.94,6.11,15.06c4.12,4.55,9.95,7.39,15.21,7.39c2.27,0,5.83-0.85,8.1-1.85
		c6.96-3.27,11.37-9.66,11.94-17.05c0.28-3.27-0.28-5.54-1.71-8.53c-2.56-5.12-8.67-9.52-18.05-13.07
		c-10.09-3.84-14.78-7.11-17.19-12.22c-1.14-2.27-1.85-5.54-1.85-8.67c0-7.39,4.12-14.35,10.52-17.48c3.41-1.71,5.54-2.13,8.95-2.13
		c5.97,0,10.52,1.85,14.78,6.11c3.41,3.27,5.12,6.96,5.68,11.37l0.14,1.71h-1.99h-1.99l-0.28-1.99c-0.57-3.13-1.99-5.68-4.69-8.24
		c-2.98-2.84-5.68-4.26-9.24-4.69c-8.1-0.99-14.92,3.41-17.05,11.23c-0.71,2.42-0.43,7.53,0.43,9.66
		c1.85,4.83,5.26,7.39,13.93,10.66c11.08,4.26,17.05,8.24,21.03,14.07c2.13,3.27,3.13,6.54,3.13,11.08c0,5.26-1.28,9.09-4.41,13.64
		c-1.56,2.27-3.13,3.84-5.97,5.97c-2.42,1.71-3.55,2.42-6.39,3.27C490.73,295.36,487.32,295.64,483.49,294.93z M108.33,294.93
		l-2.27-0.14v-41.07v-41.21h1.99h2.7l0.14,6.54l0.14,6.54l1.14-1.71c2.42-3.55,7.53-7.96,11.94-10.09
		c2.42-1.14,7.11-2.42,10.52-2.84c7.53-0.85,15.92,1.42,21.88,6.11c3.84,2.98,6.68,6.25,9.24,11.08l1.28,2.42l0.43-1.28
		c0.28-0.71,1.28-2.42,2.13-3.84c3.98-6.11,9.38-10.37,15.49-12.51c4.41-1.56,6.68-1.99,11.08-1.99c4.26,0,5.83,0.28,10.09,1.56
		c3.13,0.99,4.41,1.56,7.25,3.55c6.11,4.12,10.23,9.52,12.51,16.77c1.71,5.12,1.71,6.39,1.71,35.67v26.72l-2.27-0.14l-2.27-0.14
		v-27.99v-27.99l-0.71-3.13c-1.85-8.1-7.39-14.78-15.35-18.47c-3.41-1.56-5.4-1.99-9.38-2.27c-5.26-0.28-9.09,0.43-13.36,2.56
		c-6.96,3.55-11.94,9.38-14.49,17.19l-0.71,1.99l-0.14,28.99l-0.14,28.99h-2.13h-2.13l-0.14-28.56
		c-0.14-32.68,0.14-30.13-2.98-36.38c-2.7-5.54-6.96-9.66-12.51-12.36c-3.69-1.71-6.11-2.42-10.52-2.56
		c-5.97-0.28-10.66,0.99-15.35,3.98c-3.27,2.13-4.83,3.55-6.96,6.25c-2.42,3.13-3.41,4.97-4.55,8.53l-0.99,2.84l-0.14,29.27
		l-0.14,29.27L108.33,294.93z M269.48,294.51c-6.96-0.71-12.22-2.56-18.05-6.11c-8.38-5.12-15.21-13.93-17.91-23.16
		c-1.56-5.26-1.85-7.11-1.85-12.65c0-5.68,0.28-7.82,1.99-13.07c3.69-12.08,14.49-23.02,26.43-26.86c9.66-3.13,17.76-3.13,27.57,0
		c8.67,2.7,17.76,10.09,22.17,17.91c0.71,1.14,1.28,2.13,1.56,2.27c0.14,0.14,0.28-3.41,0.14-10.09l-0.14-10.09h2.27h2.27v41.07
		v41.07h-2.27h-2.27l-0.14-11.37l-0.14-11.37l-0.99,1.71c-3.84,6.68-9.52,12.08-17.05,16.34c-4.12,2.27-9.52,3.84-15.49,4.55
		C274.45,294.79,272.89,294.79,269.48,294.51z M280.14,289.68c9.09-1.71,17.19-6.39,22.74-13.36c2.7-3.41,4.26-5.97,5.68-9.52
		c3.84-9.81,3.84-18.9,0-28.7c-2.42-6.11-6.82-11.79-12.36-15.92c-4.26-3.27-11.65-6.25-16.77-6.96c-2.98-0.43-9.09-0.43-11.94,0.14
		c-5.4,0.99-11.94,3.84-16.48,7.11c-2.56,1.85-5.97,5.54-7.96,8.24c-1.71,2.27-4.26,7.53-5.26,10.37
		c-2.56,7.82-2.27,17.05,0.57,24.44c2.84,7.25,7.11,12.79,13.36,17.48c3.69,2.84,10.52,5.68,15.49,6.68
		C270.33,290.25,277.15,290.25,280.14,289.68z M356.59,294.51c-9.95-0.99-18.33-5.12-25.29-12.08c-6.25-6.25-9.66-12.65-11.51-21.17
		c-0.71-3.13-0.71-4.41-0.71-8.67c0-9.38,1.99-15.77,7.25-23.87c0.85-1.28,2.84-3.84,4.55-5.4c6.25-6.39,13.07-10.09,22.31-12.08
		c3.98-0.85,11.23-0.99,15.21-0.14c9.38,1.85,16.77,5.68,23.02,12.22c1.71,1.85,3.84,4.26,4.55,5.4c1.85,2.7,4.12,7.11,3.98,7.39
		c-0.14,0.14-1.28,0.28-2.42,0.28l-2.27,0.14l-0.85-1.85c-1.14-2.13-3.41-5.26-5.83-7.96c-4.97-5.26-13.22-9.66-20.75-11.08
		c-3.27-0.57-9.52-0.57-12.79,0c-9.09,1.56-18.19,7.11-23.87,14.78c-3.13,4.12-5.97,10.94-6.96,16.06c-0.57,3.13-0.57,9.52,0,12.65
		c0.85,4.83,3.41,11.08,6.25,15.21c1.85,2.7,5.68,6.68,8.53,8.81c2.27,1.71,7.96,4.55,10.94,5.54c6.96,2.27,15.77,2.27,22.45,0.14
		c3.27-0.99,7.82-3.27,10.52-5.12c4.26-2.98,9.52-8.67,11.51-12.79l0.85-1.71h2.56h2.56l-1.56,2.84c-2.42,4.55-4.26,6.96-7.82,10.66
		c-5.83,5.83-12.79,9.81-20.18,11.37C365.4,294.79,361.28,294.93,356.59,294.51z M470.41,203.85c0,0,0.43-1.42,0.99-2.98l0.99-2.98
		l-1.85-1.28c-0.99-0.71-2.13-1.56-2.56-1.85l-0.85-0.71l3.27-0.14l3.27-0.14l0.71-2.56c0.43-1.42,0.85-2.84,0.85-2.98
		c0.14-0.28,0.57,0.99,1.14,2.56l0.99,2.98l3.13,0.14l3.13,0.14l-1.14,0.85c-0.57,0.43-1.71,1.28-2.42,1.85l-1.42,0.99l0.99,2.98
		c0.57,1.56,0.99,2.98,0.99,3.13c0,0-1.14-0.71-2.7-1.71c-1.85-1.28-2.7-1.71-2.98-1.56c-0.28,0.14-1.42,0.99-2.56,1.85
		C471.41,203.14,470.41,203.85,470.41,203.85z"/>
</g>
</svg>
