<?xml version="1.0" encoding="utf-8"?>
<!-- Generator: Adobe Illustrator 26.5.0, SVG Export Plug-In . SVG Version: 6.00 Build 0)  -->
<svg version="1.1" id="Layer_1" xmlns="http://www.w3.org/2000/svg" xmlns:xlink="http://www.w3.org/1999/xlink" x="0px" y="0px"
	 viewBox="0 0 512 512" style="enable-background:new 0 0 512 512;" xml:space="preserve">
<g id="XMLID_20_">
	<path id="XMLID_24_" d="M85.82,286.01c-4.07,0-7.29,2.81-7.29,7.01s3.23,7.01,7.29,7.01s7.29-2.81,7.29-7.01
		S89.89,286.01,85.82,286.01z M85.82,297.93c-2.95,0-5.05-2.1-5.05-5.05c0-2.81,2.1-5.05,5.05-5.05c2.95,0,5.05,2.1,5.05,5.05
		C90.87,295.83,88.63,297.93,85.82,297.93z"/>
	<polygon id="XMLID_25_" points="156.38,261.46 121.03,261.46 125.1,200.02 102.1,261.46 69.41,261.46 121.45,122.72 156.38,122.72 
		152.32,184.87 175.74,122.72 208.57,122.72 	"/>
	<polygon id="XMLID_26_" points="160.73,261.46 212.78,122.72 245.6,122.72 193.56,261.46 	"/>
	<path id="XMLID_27_" d="M65.62,213.62C19.75,267.49-23.46,339.18,14.7,372.14c37.03,31.98,83.33,13.05,114.89,0.42
		s380.3-164.13,380.3-164.13c3.37-1.68,2.67-3.79-1.4-2.67c-1.68,0.42-379.74,102.83-379.74,102.83
		C80.77,322.06,26.06,292.74,65.62,213.62z"/>
	<path id="XMLID_30_" d="M87.09,293.45c0.98,0,1.82-0.56,1.82-1.96c0-1.82-1.12-2.24-3.23-2.24h-2.81v7.58h1.96v-3.23h0.28
		l1.68,3.23h2.24L87.09,293.45z M85.82,292.32H84.7v-1.68h0.98c0.56,0,1.26,0,1.26,0.84C86.8,292.04,86.52,292.32,85.82,292.32z"/>
	<path id="XMLID_33_" d="M415.63,122.3c-4.07,0-7.29,2.81-7.29,7.01s3.23,7.01,7.29,7.01c4.07,0,7.29-2.81,7.29-7.01
		S419.69,122.3,415.63,122.3z M415.63,134.22c-2.95,0-5.05-2.1-5.05-5.05c0-2.81,2.1-5.05,5.05-5.05s5.05,2.1,5.05,5.05
		C420.68,132.12,418.57,134.22,415.63,134.22z"/>
	<path id="XMLID_36_" d="M416.89,129.74c0.98,0,1.82-0.56,1.82-1.96c0-1.82-1.12-2.24-3.23-2.24h-2.81v7.58h1.96v-3.37h0.28
		l1.68,3.23h2.24L416.89,129.74z M415.77,128.47h-1.12v-1.68h0.98c0.56,0,1.26,0,1.26,0.84
		C416.75,128.33,416.33,128.47,415.77,128.47z"/>
	<path id="XMLID_39_" d="M394.02,145.73l8.84-23.15h-65.79h-0.28H302.7l-34.37,41.66l15.85-41.66h-33.25l-51.62,138.88h32.83
		l22.02-58.08l1.54,58.08l100.72-0.28l9.54-26.65h-38.3l12.63-33.67h31.56l9.68-25.81h-31.56l10.8-29.18h33.25V145.73z
		 M288.25,252.2l-2.1-72.39l49.66-54.43L288.25,252.2z"/>
</g>
</svg>
