<?xml version="1.0" encoding="utf-8"?>
<!-- Generator: Adobe Illustrator 19.0.0, SVG Export Plug-In . SVG Version: 6.00 Build 0)  -->
<svg version="1.1" id="Layer_1" xmlns="http://www.w3.org/2000/svg" xmlns:xlink="http://www.w3.org/1999/xlink" x="0px" y="0px"
	 viewBox="0 0 500 500" style="enable-background:new 0 0 500 500;" xml:space="preserve">
<g id="XMLID_1_">
	<path id="XMLID_5_" d="M129.1,269.1c8.6,0,13.4-6.8,13.4-19.2c0-12.2-4.8-19.2-13.4-19.2c-8.6,0-13.4,7-13.4,18.9
		C115.7,262.2,120.3,269.1,129.1,269.1 M129.1,227.9c12.1,0,19.9,8.9,19.9,22c0,13.1-8,22.2-19.9,22.2c-11.8,0-19.9-9.4-19.9-22.2
		C109.2,237.1,117.4,227.9,129.1,227.9"/>
	<path id="XMLID_8_" d="M226.3,249.3c0-11.6-5.4-18.2-15.8-18.2c-4.5,0-6.4,0.3-6.4,0.3s0.4,1,0.4,2.7c0,3.7-0.1,10.5-0.1,15.8
		c0,5.7,0.1,11.8,0.2,15.4c0,1.9-0.4,3.1-0.4,3.1s1.7,0.3,5.5,0.3C220.8,268.6,226.3,261.8,226.3,249.3 M232.7,249.1
		c0,13.7-7.7,22.2-21,22.2h-13.4c0,0,0.3-13.5,0.3-21.4c0-7.7-0.3-21.3-0.3-21.3h15.3C226.2,228.6,232.7,235.6,232.7,249.1"/>
	<path id="XMLID_11_" d="M362.7,269.1c8.6,0,13.4-6.8,13.4-19.2c0-12.2-4.8-19.2-13.4-19.2c-8.6,0-13.4,7-13.4,18.9
		C349.3,262.2,353.9,269.1,362.7,269.1 M362.7,227.9c12,0,19.9,8.9,19.9,22c0,13.1-8,22.2-19.9,22.2c-11.8,0-19.9-9.4-19.9-22.2
		C342.8,237.1,350.9,227.9,362.7,227.9"/>
	<path id="XMLID_12_" d="M71.5,256.3c0,10.3,0.4,15,0.4,15h-4.5c0,0,0.6-17.3,0.6-33.8c0-2.8-0.2-8.9-0.2-8.9h3.1
		c0,0,11.9,16.9,19.8,27.9c0.9,1.2,2,3.3,2.8,4.8c0,0-0.3-2.9-0.3-5.6v-12.1c0-11-0.6-15-0.6-15h4.5c0,0-0.6,15.6-0.6,33.8
		c0,1.8,0.1,8.9,0.1,8.9h-3.1c0,0-11.7-16.6-19.7-27.7c-1.2-1.7-2-2.9-2.8-4.5c0,0,0.3,3.6,0.3,5.5L71.5,256.3L71.5,256.3z"/>
	<path id="XMLID_13_" d="M252.7,269.1c4.8-0.1,8.5-4.3,7.8-8.9c-0.6-3.7-3.3-5.8-8-8.5c-5.9-3.4-9.5-5.9-10.1-11.6
		c-0.8-7.1,5.2-12.1,12.3-12.4c4-0.2,7.6,1,9.1,1.4v4.5c0,0-3.4-3.3-8.8-3.3c-3.7,0-7.8,2.4-7.8,6.6c0,3.7,2.9,5.5,8.1,8.6
		c6.9,4.1,10.4,7.3,10.4,13.5c0,7.6-6.2,13-13.7,13c-4,0-7.8-0.9-9.1-1.4v-5C243,265.6,246.6,269.2,252.7,269.1"/>
	<path id="XMLID_14_" d="M299.7,228.6v4c0,0-3.1-1-8.2-1h-2.8c0,0,0.1,1.1,0.1,2.7c0,0-0.1,7.6-0.1,9.8c0,11.9,0.6,27.2,0.6,27.2
		h-6.7c0,0,0.6-15.3,0.6-27.2c0-2.1-0.1-9.8-0.1-9.8c0-1.6,0.1-2.7,0.1-2.7h-2.8c-5.1,0-8.2,1-8.2,1v-4H299.7z"/>
	<path id="XMLID_15_" d="M432.5,271.3h-6.3c0,0-0.4-15.6-1-26.5c-0.1-1.3-0.1-3-0.1-4.8c0,0-0.7,2.3-1.7,4.6l-11.7,27.7
		c0,0-6.5-15-11.7-26.2c-0.8-1.7-1.8-4.7-2.5-6.1c0.1,2.3-0.1,4.8-0.2,6.7c-0.8,11-1,24.6-1,24.6h-4.1l2.6-42.7h3.7
		c0,0,7.9,17.7,12.9,28.6c0.6,1.4,1.4,2.9,1.7,4.4c0.5-1.6,1-3,1.6-4.3c4.7-11,11.8-28.6,11.8-28.6h3.7L432.5,271.3z"/>
	<path id="XMLID_16_" d="M334.1,238.6c0,5.7-3.6,9.5-9.8,11.2c4,7.4,12.2,21.6,12.2,21.6h-6.7c0,0-3.6-7.3-12.8-23.5h0.7
		c6.8,0,10.4-2.8,10.4-8.5c0-4.9-3-8-8.6-8c-1.6,0-4.2,0.1-4.2,0.1s0.4,1,0.4,3.7v22c0,9.5,0.4,14.3,0.4,14.3h-6.4
		c0,0,0.5-16.8,0.5-25.6c0-6.1-0.5-17.1-0.5-17.1h12.6C329.9,228.6,334.1,232.2,334.1,238.6"/>
	<path id="XMLID_17_" d="M185.4,238.6c0,5.7-3.6,9.5-9.8,11.2c4,7.4,12.2,21.6,12.2,21.6H181c0,0-3.6-7.3-12.8-23.5h0.7
		c6.8,0,10.4-2.8,10.4-8.5c0-4.9-3-8-8.6-8c-1.6,0-4.2,0.1-4.2,0.1s0.4,1,0.4,3.7v22c0,9.5,0.4,14.3,0.4,14.3H161
		c0,0,0.4-16.8,0.4-25.6c0-6.1-0.4-17.1-0.4-17.1h12.6C181.2,228.6,185.4,232.2,185.4,238.6"/>
</g>
</svg>
