<svg height="512" viewBox="0 0 64 64" width="512" xmlns="http://www.w3.org/2000/svg"><g id="bar_code-scan-qr_code-delivery-logistic-parcel_box" data-name="bar code-scan-qr code-delivery-logistic-parcel box"><path d="m3 13h50v42h-50z" fill="#957856"/><path d="m11 55h42v-42a42 42 0 0 1 -42 42z" fill="#806749"/><path d="m53 37h-24v18 6h32v-24z" fill="#e6e7e8"/><path d="m53 13h-50l6-10h38z" fill="#a78966"/><path d="m34 13h-12l2-10h8z" fill="#ffda44"/><path d="m22 13h12v12h-12z" fill="#ffcd00"/><path d="m7 39h18v12h-18z" fill="#ffcd00"/><g fill="#6d6e71"><path d="m46 40h2v14h-2z"/><path d="m46 56h2v2h-2z"/><path d="m49 40h2v14h-2z"/><path d="m49 56h2v2h-2z"/><path d="m53 40h2v14h-2z"/><path d="m53 56h2v2h-2z"/><path d="m56 40h2v18h-2z"/><path d="m43 40h2v14h-2z"/><path d="m43 56h2v2h-2z"/><path d="m39 40h2v14h-2z"/><path d="m39 56h2v2h-2z"/><path d="m36 40h2v14h-2z"/><path d="m36 56h2v2h-2z"/><path d="m32 40h2v18h-2z"/></g><path d="m11 44h1a1 1 0 0 0 0-2h-1a1 1 0 0 0 0 2z" fill="#cca400"/><path d="m15 44h6a1 1 0 0 0 0-2h-6a1 1 0 0 0 0 2z" fill="#cca400"/><path d="m11 48h1a1 1 0 0 0 0-2h-1a1 1 0 0 0 0 2z" fill="#cca400"/><path d="m15 48h6a1 1 0 0 0 0-2h-6a1 1 0 0 0 0 2z" fill="#cca400"/><path d="m9.707 28.707 1.293-1.293v7.586a1 1 0 0 0 2 0v-7.586l1.293 1.293a1 1 0 0 0 1.414-1.414l-3-3a1 1 0 0 0 -1.414 0l-3 3a1 1 0 0 0 1.414 1.414z" fill="#ff9811"/></g></svg>