<svg height="512" viewBox="0 0 64 64" width="512" xmlns="http://www.w3.org/2000/svg"><g id="qr_code-delivery-logistic-parcel_box-shipping" data-name="qr code-delivery-logistic-parcel box-shipping"><path d="m3 13h50v42h-50z" fill="#957856"/><path d="m11 55h42v-42a42 42 0 0 1 -42 42z" fill="#806749"/><path d="m53 13h-50l6-10h38z" fill="#a78966"/><path d="m34 13h-12l2-10h8z" fill="#ffda44"/><path d="m22 13h12v12h-12z" fill="#ffcd00"/><path d="m7 39h18v12h-18z" fill="#ffcd00"/><path d="m29 29h32v32h-32z" fill="#e6e7e8"/><g fill="#6d6e71"><path d="m36 36h4v4h-4z"/><path d="m32 32v12h12v-12zm10 10h-8v-8h8z"/><path d="m46 32v12h12v-12zm10 10h-8v-8h8z"/><path d="m32 46v12h12v-12zm10 10h-8v-8h8z"/><path d="m55 47v-2h-2-2v4h2v-2z"/><path d="m56 45h2v2h-2z"/><path d="m48 50v2h2v2h-1v2h-2v-2h-1v-6h4v2z"/><path d="m56 49h2v3h-2z"/><path d="m54 53h4v2h-4z"/><path d="m45 56h2v2h-2z"/><path d="m49 56h6v2h-6z"/><path d="m50 36h4v4h-4z"/><path d="m36 50h4v4h-4z"/><path d="m51 50h4v2h-4z"/><path d="m45 45h2v2h-2z"/><path d="m48 45h2v2h-2z"/><path d="m51 53h2v2h-2z"/><path d="m56 56h2v2h-2z"/></g><path d="m11 44h1a1 1 0 0 0 0-2h-1a1 1 0 0 0 0 2z" fill="#cca400"/><path d="m15 44h6a1 1 0 0 0 0-2h-6a1 1 0 0 0 0 2z" fill="#cca400"/><path d="m11 48h1a1 1 0 0 0 0-2h-1a1 1 0 0 0 0 2z" fill="#cca400"/><path d="m15 48h6a1 1 0 0 0 0-2h-6a1 1 0 0 0 0 2z" fill="#cca400"/><path d="m9.707 28.707 1.293-1.293v7.586a1 1 0 0 0 2 0v-7.586l1.293 1.293a1 1 0 0 0 1.414-1.414l-3-3a1 1 0 0 0 -1.414 0l-3 3a1 1 0 0 0 1.414 1.414z" fill="#ff9811"/></g></svg>