<svg height="512" viewBox="0 0 64 64" width="512" xmlns="http://www.w3.org/2000/svg"><g id="location-delivery-logistic-map-parcel_box" data-name="location-delivery-logistic-map-parcel box"><path d="m53 13h-50l6-10h38z" fill="#a78966"/><path d="m3 13h50v42h-50z" fill="#957856"/><path d="m11 55h42v-42a42 42 0 0 1 -42 42z" fill="#806749"/><path d="m34 13h-12l2-10h8z" fill="#ffda44"/><path d="m22 13h12v12h-12z" fill="#ffcd00"/><path d="m7 39h20v12h-20z" fill="#ffcd00"/><path d="m61 43c0 6.63-12 18-12 18s-12-11.37-12-18a12 12 0 0 1 24 0z" fill="#ed1c24"/><circle cx="49" cy="43" fill="#f1f2f2" r="4"/><g fill="#cca400"><path d="m11 44h1a1 1 0 0 0 0-2h-1a1 1 0 0 0 0 2z"/><path d="m15 44h8a1 1 0 0 0 0-2h-8a1 1 0 0 0 0 2z"/><path d="m11 48h1a1 1 0 0 0 0-2h-1a1 1 0 0 0 0 2z"/><path d="m15 48h8a1 1 0 0 0 0-2h-8a1 1 0 0 0 0 2z"/></g></g></svg>