<svg height="512" viewBox="0 0 64 64" width="512" xmlns="http://www.w3.org/2000/svg"><g id="weigh-scale-delivery-logistic-parcel_box" data-name="weigh-scale-delivery-logistic-parcel box"><path d="m51 22h4v31h-4z" fill="#a7a9ac"/><path d="m3 53h58v4h-58z" fill="#58595b"/><path d="m5 57h6v4h-6z" fill="#414042"/><path d="m53 57h6v4h-6z" fill="#414042"/><path d="m8 49h32v4h-32z" fill="#939598"/><path d="m3 45h42v4h-42z" fill="#58595b"/><path d="m53 9a8 8 0 1 0 8 8 8 8 0 0 0 -8-8z" fill="#ed1c24"/><circle cx="53" cy="18" fill="#9bc9ff" r="1"/><path d="m40 21h-16l3-4h10z" fill="#a78966"/><path d="m34 21-1-4h-2l-1 4z" fill="#ffda44"/><path d="m24 21h16v12h-16z" fill="#957856"/><path d="m28 33h12v-12a12 12 0 0 1 -12 12z" fill="#806749"/><path d="m30 21h4v4h-4z" fill="#ffcd00"/><path d="m24 33h16v12h-16z" fill="#957856"/><path d="m28 45h12v-12a12 12 0 0 1 -12 12z" fill="#806749"/><path d="m30 33h4v4h-4z" fill="#ffcd00"/><path d="m8 33h16v12h-16z" fill="#957856"/><path d="m12 45h12v-12a12 12 0 0 1 -12 12z" fill="#806749"/><path d="m14 33h4v4h-4z" fill="#ffcd00"/><path d="m24 21h-16l3-4h10z" fill="#a78966"/><path d="m18 21-1-4h-2l-1 4z" fill="#ffda44"/><path d="m8 21h16v12h-16z" fill="#957856"/><path d="m12 33h12v-12a12 12 0 0 1 -12 12z" fill="#806749"/><path d="m14 21h4v4h-4z" fill="#ffcd00"/><g fill="#6a563d"><path d="m28 29h-1a1 1 0 0 0 0 2h1a1 1 0 0 0 0-2z"/><path d="m28 41h-1a1 1 0 0 0 0 2h1a1 1 0 0 0 0-2z"/><path d="m31 31h4a1 1 0 0 0 0-2h-4a1 1 0 0 0 0 2z"/><path d="m35 41h-4a1 1 0 0 0 0 2h4a1 1 0 0 0 0-2z"/><path d="m12 29h-1a1 1 0 0 0 0 2h1a1 1 0 0 0 0-2z"/><path d="m12 41h-1a1 1 0 0 0 0 2h1a1 1 0 0 0 0-2z"/><path d="m19 29h-4a1 1 0 0 0 0 2h4a1 1 0 0 0 0-2z"/><path d="m19 41h-4a1 1 0 0 0 0 2h4a1 1 0 0 0 0-2z"/></g><path d="m55 18a1.993 1.993 0 0 0 -1-1.722v-4.278a1 1 0 0 0 -2 0v4.278a2 2 0 1 0 3 1.722z" fill="#f1f2f2"/><path d="m8 49h32v1h-32z" fill="#808285"/></g></svg>