<svg height="512" viewBox="0 0 64 64" width="512" xmlns="http://www.w3.org/2000/svg"><g id="delivery-logistic-clipboard-check_list-file" data-name="delivery-logistic-clipboard-check list-file"><path d="m3 9h42v52h-42z" fill="#2488ff"/><path d="m7 13v38h6v6h28v-44z" fill="#ffdaaa"/><path d="m13 57h28v-28a28 28 0 0 1 -28 28z" fill="#ffc477"/><path d="m15 15h18v-8h-6.18a2.772 2.772 0 0 0 .18-1 3 3 0 0 0 -6 0 2.772 2.772 0 0 0 .18 1h-6.18z" fill="#ed1c24"/><path d="m13 19v6h6v-5-1z" fill="#5eac24"/><path d="m13 35h6v-5-1h-6z" fill="#5eac24"/><path d="m13 45h6v-5-1h-6z" fill="#5eac24"/><path d="m37 41h24v20h-24z" fill="#957856"/><path d="m41 61h20v-20a20 20 0 0 1 -20 20z" fill="#806749"/><path d="m61 41h-24l3-4h18z" fill="#a78966"/><path d="m46 41h6v6h-6z" fill="#ffcd00"/><path d="m52 41-1-4h-4l-1 4z" fill="#ffda44"/><path d="m7 51 6 6v-6z" fill="#ff5023"/><path d="m42 53h-1a1 1 0 0 0 0 2h1a1 1 0 0 0 0-2z" fill="#806749"/><path d="m49 53h-4a1 1 0 0 0 0 2h4a1 1 0 0 0 0-2z" fill="#806749"/><path d="m42 56h-1a1 1 0 0 0 0 2h1a1 1 0 0 0 0-2z" fill="#806749"/><path d="m49 56h-4a1 1 0 0 0 0 2h4a1 1 0 0 0 0-2z" fill="#806749"/><path d="m57.71 53.71a1.014 1.014 0 0 1 -1.42 0l-.29-.3v3.59a1 1 0 0 1 -2 0v-3.59l-.29.3a1 1 0 0 1 -1.42-1.42l2-2a1.008 1.008 0 0 1 1.42 0l2 2a1.008 1.008 0 0 1 0 1.42z" fill="#6a563d"/><path d="m16 24a1 1 0 0 1 -.707-.293l-1.414-1.414a1 1 0 1 1 1.414-1.414l.707.707 3.293-3.293a1 1 0 0 1 1.414 1.414l-4 4a1 1 0 0 1 -.707.293z" fill="#4e901e"/><path d="m16 34a1 1 0 0 1 -.707-.293l-1.414-1.414a1 1 0 1 1 1.414-1.414l.707.707 3.293-3.293a1 1 0 0 1 1.414 1.414l-4 4a1 1 0 0 1 -.707.293z" fill="#4e901e"/><path d="m16 44a1 1 0 0 1 -.707-.293l-1.414-1.414a1 1 0 1 1 1.414-1.414l.707.707 3.293-3.293a1 1 0 0 1 1.414 1.414l-4 4a1 1 0 0 1 -.707.293z" fill="#4e901e"/><g fill="#ff7956"><path d="m25 21h10a1 1 0 0 0 0-2h-10a1 1 0 0 0 0 2z"/><path d="m25 25h6a1 1 0 0 0 0-2h-6a1 1 0 0 0 0 2z"/><path d="m25 31h10a1 1 0 0 0 0-2h-10a1 1 0 0 0 0 2z"/><path d="m25 35h6a1 1 0 0 0 0-2h-6a1 1 0 0 0 0 2z"/><path d="m25 41h8a1 1 0 0 0 0-2h-8a1 1 0 0 0 0 2z"/><path d="m25 45h4a1 1 0 0 0 0-2h-4a1 1 0 0 0 0 2z"/><path d="m33 48h-16a1 1 0 0 0 0 2h16a1 1 0 0 0 0-2z"/><path d="m29 52h-12a1 1 0 0 0 0 2h12a1 1 0 0 0 0-2z"/></g></g></svg>