<svg id="Layer_2" enable-background="new 0 0 512 512" height="512" viewBox="0 0 512 512" width="512" xmlns="http://www.w3.org/2000/svg"><g><g><path d="m390 466v-124c0-30.928 25.072-56 56-56 30.928 0 56 25.072 56 56v124z" fill="#6e83b7"/></g><g><path d="m410 372v-30c0-19.851 16.149-36 36-36s36 16.149 36 36v30z" fill="#ffb0aa"/></g><g><path d="m396 466h100v20h-100z" fill="#466089"/></g><g><path d="m410 382h72v10h-72z" fill="#466089"/></g><g><path d="m410 402h72v10h-72z" fill="#466089"/></g><g><g><path d="m358 356h-348l14-210h320z" fill="#6e83b7"/></g><g><path d="m10 356h348v110h-348z" fill="#6e83b7"/></g><g><path d="m30 376h308v70h-308z" fill="#466089"/></g><g><path d="m10.8 344-.8 12h348l-.8-12z" fill="#466089"/></g><g><path d="m10 486v-20h60l-20 20z" fill="#466089"/></g><g><path d="m358 486v-20h-60l20 20z" fill="#466089"/></g><g><path d="m44 166h150v150h-150z" fill="#98ca69" transform="matrix(0 1 -1 0 360 122)"/></g><g><path d="m214 166h30v30h-30z" fill="#edeff1"/></g><g><path d="m254 166h30v30h-30z" fill="#edeff1"/></g><g><path d="m294 166h30v30h-30z" fill="#edeff1"/></g><g><path d="m214 206h30v30h-30z" fill="#edeff1"/></g><g><path d="m254 206h30v30h-30z" fill="#edeff1"/></g><g><path d="m294 206h30v30h-30z" fill="#edeff1"/></g><g><path d="m214 246h30v30h-30z" fill="#edeff1"/></g><g><path d="m254 246h30v30h-30z" fill="#edeff1"/></g><g><path d="m214 286h30v30h-30z" fill="#edeff1"/></g><g><path d="m254 286h30v30h-30z" fill="#edeff1"/></g><g><path d="m294 246h30v70h-30z" fill="#ffe352"/></g><path d="m127.621 234h-17.241c-6.079 0-11.024-4.945-11.024-11.024s4.945-11.024 11.024-11.024h16.458c6.511 0 11.808 5.297 11.808 11.808h14c0-14.23-11.578-25.808-25.808-25.808h-.838v-11.808h-14v11.808h-1.621c-13.798 0-25.024 11.226-25.024 25.024s11.226 25.024 25.024 25.024h17.241c6.079 0 11.024 4.945 11.024 11.024s-4.945 11.024-11.024 11.024h-16.458c-6.511 0-11.808-5.297-11.808-11.808h-14c0 14.23 11.578 25.808 25.808 25.808h.838v11.808h14v-11.808h1.621c13.798 0 25.024-11.226 25.024-25.024s-11.226-25.024-25.024-25.024z" fill="#6e83b7"/><g><circle cx="194" cy="411" fill="#ffe352" r="24"/></g><g><path d="m189 395h10v32h-10z" fill="#ffb236"/></g><g><path d="m254 116h30v30h-30z" fill="#466089"/></g><g><path d="m229 1h80v150h-80z" fill="#6e83b7" transform="matrix(0 1 -1 0 345 -193)"/></g></g></g></svg>