<svg height="512" viewBox="0 0 64 64" width="512" xmlns="http://www.w3.org/2000/svg"><g id="search-delivery-logistic-parcel_box-shipping" data-name="search-delivery-logistic-parcel box-shipping"><path d="m46.838 38.353 2.789 2.789a2 2 0 0 1 0 2.829l-5.656 5.656a2 2 0 0 1 -2.829 0l-2.789-2.789z" fill="#ed1c24"/><path d="m49.627 43.971-5.656 5.656 9.9 9.9a4 4 0 0 0 5.657-5.657z" fill="#006df0"/><circle cx="27" cy="27" fill="#ff9811" r="24"/><circle cx="27" cy="27" fill="#e6e7e8" r="20"/><path d="m15 18h24v20h-24z" fill="#957856"/><path d="m19 38h20v-20a20 20 0 0 1 -20 20z" fill="#806749"/><path d="m39 18h-24l3-4h18z" fill="#a78966"/><path d="m24 18h6v6h-6z" fill="#ffcd00"/><path d="m30 18-1-4h-4l-1 4z" fill="#ffda44"/><g fill="#6a563d"><path d="m20 32h-1a1 1 0 0 1 0-2h1a1 1 0 0 1 0 2z"/><path d="m27 32h-4a1 1 0 0 1 0-2h4a1 1 0 0 1 0 2z"/><path d="m20 35h-1a1 1 0 0 1 0-2h1a1 1 0 0 1 0 2z"/><path d="m27 35h-4a1 1 0 0 1 0-2h4a1 1 0 0 1 0 2z"/></g><path d="m30.293 27.293a1 1 0 0 0 1.414 1.414l.293-.293v5.586a1 1 0 0 0 2 0v-5.586l.293.293a1 1 0 0 0 1.414-1.414l-2-2a1 1 0 0 0 -1.414 0z" fill="#ff9811"/></g></svg>