<svg height="512" viewBox="0 0 64 64" width="512" xmlns="http://www.w3.org/2000/svg"><g id="warehouse-distribution-shipping-delivery-parcel_box" data-name="warehouse-distribution-shipping-delivery-parcel box"><path d="m7 27h50v34h-50z" fill="#e6e7e8"/><path d="m12 41h24v20h-24z" fill="#957856"/><path d="m16 61h20v-20a20 20 0 0 1 -20 20z" fill="#806749"/><path d="m36 41h-24l3-4h18z" fill="#a78966"/><path d="m21 41h6v6h-6z" fill="#ffcd00"/><path d="m27 41-1-4h-4l-1 4z" fill="#ffda44"/><path d="m3 15v4h4 50 4v-4l-29-12z" fill="#6d6e71"/><path d="m57 23v4 34h4v-42h-4z" fill="#58595b"/><path d="m7 23v-4h-4v42h4v-34z" fill="#58595b"/><path d="m7 19h50v4h-50z" fill="#939598"/><path d="m7 23h50v4h-50z" fill="#a7a9ac"/><path d="m36 49h16v12h-16z" fill="#957856"/><path d="m40 61h12v-12a12 12 0 0 1 -12 12z" fill="#806749"/><path d="m42 49h4v4h-4z" fill="#ffcd00"/><path d="m52 37h-16l3-4h10z" fill="#c0ab91"/><path d="m46 37-1-4h-2l-1 4z" fill="#ffda44"/><path d="m36 37h16v12h-16z" fill="#a78966"/><path d="m40 49h12v-12a12 12 0 0 1 -12 12z" fill="#806749"/><path d="m42 37h4v4h-4z" fill="#ffcd00"/><g fill="#6a563d"><path d="m17 53h-1a1 1 0 0 0 0 2h1a1 1 0 0 0 0-2z"/><path d="m24 53h-4a1 1 0 0 0 0 2h4a1 1 0 0 0 0-2z"/><path d="m40 45h-1a1 1 0 0 0 0 2h1a1 1 0 0 0 0-2z"/><path d="m40 57h-1a1 1 0 0 0 0 2h1a1 1 0 0 0 0-2z"/><path d="m47 45h-4a1 1 0 0 0 0 2h4a1 1 0 0 0 0-2z"/><path d="m47 57h-4a1 1 0 0 0 0 2h4a1 1 0 0 0 0-2z"/><path d="m17 56h-1a1 1 0 0 0 0 2h1a1 1 0 0 0 0-2z"/><path d="m24 56h-4a1 1 0 0 0 0 2h4a1 1 0 0 0 0-2z"/></g><path d="m30.707 50.293a1 1 0 0 0 -1.414 0l-2 2a1 1 0 0 0 1.414 1.414l.293-.293v3.586a1 1 0 0 0 2 0v-3.586l.293.293a1 1 0 0 0 1.414-1.414z" fill="#ff9811"/></g></svg>