<?xml version="1.0" encoding="utf-8"?>
<!-- Generator: Adobe Illustrator 27.0.0, SVG Export Plug-In . SVG Version: 6.00 Build 0)  -->
<svg version="1.1" id="Layer_1" xmlns="http://www.w3.org/2000/svg" xmlns:xlink="http://www.w3.org/1999/xlink" x="0px" y="0px"
	 viewBox="0 0 512 512" style="enable-background:new 0 0 512 512;" xml:space="preserve">
<path d="M82.92,289.69H0v-2.56l62.15-60.87H36.69H10.67l-1.42,15.22H5.4l1.71-17.64h77.65v1.85l-63.15,61.58h57.32l1.56-19.06h4.27
	L82.92,289.69L82.92,289.69z M467.34,269.21L467.34,269.21h-34.42l-11.09,18.06h20.05v2.56h-39.25v-2.56h14.93l39.54-64.85h2.42
	l37.83,64.85H512v2.56h-51.63v-2.56h17.49L467.34,269.21L467.34,269.21z M434.49,266.65L434.49,266.65h31.43l-15.22-26.31h-0.28
	L434.49,266.65L434.49,266.65z M180.76,269.06L180.76,269.06h-34.42l-11.09,18.06h20.05v2.56h-39.25v-2.56h14.93l39.54-64.85h2.42
	l37.83,64.85h14.51v2.56h-51.63v-2.56h17.49L180.76,269.06L180.76,269.06z M147.34,266.65L147.34,266.65h31.43l-15.36-26.31h-0.28
	L147.34,266.65L147.34,266.65z M278.47,287.13L278.47,287.13v-60.87H261.4v-2.56h59.31l21.33,0.14c11.38,0,14.36,8.96,14.36,15.08
	c0,8.11-1.99,14.79-14.22,17.07c-0.28,0-1.85,0.14-4.12,0.14l17.92,30.86h14.51v2.56h-32.71l-19.63-33.42h-20.62v31h17.07v2.56
	H261.4v-2.56H278.47L278.47,287.13z M297.67,226.4L297.67,226.4v27.31h19.06c4.12,0,7.25-0.43,9.67-0.85
	c3.27-0.57,5.83-1.85,7.82-3.98c1.99-2.13,2.99-5.55,2.99-10.24c0-3.84-1-6.68-2.99-8.39c-1.99-1.71-4.41-2.84-7.25-3.27
	c-2.84-0.43-6.54-0.57-11.09-0.57H297.67z"/>
</svg>
